<?xml version="1.0" encoding="UTF-8" standalone="no"?>
<!-- Created with Inkscape (http://www.inkscape.org/) -->

<svg
   xmlns:dc="http://purl.org/dc/elements/1.1/"
   xmlns:cc="http://creativecommons.org/ns#"
   xmlns:rdf="http://www.w3.org/1999/02/22-rdf-syntax-ns#"
   xmlns:svg="http://www.w3.org/2000/svg"
   xmlns="http://www.w3.org/2000/svg"
   xmlns:sodipodi="http://sodipodi.sourceforge.net/DTD/sodipodi-0.dtd"
   xmlns:inkscape="http://www.inkscape.org/namespaces/inkscape"
   width="200"
   height="200"
   viewBox="0 0 200 200"
   id="svg8327"
   version="1.1"
   inkscape:version="0.91 r13725"
   sodipodi:docname="wN.svg">
  <defs
     id="defs8329">
    <filter
       id="fShadow"
       width="150%"
       height="150%">
      <feGaussianBlur
         in="SourceAlpha"
         stdDeviation="3"
         result="blur"
         id="feGaussianBlur4609" />
      <feColorMatrix
         in="blur"
         type="matrix"
         values="2 0 0 0 0 0 2 0 0 0 0 0 2 0 0 0 0 0 0.5 0 "
         result="blurAlpha"
         id="feColorMatrix4611" />
      <feOffset
         in="blurAlpha"
         dx="4.5"
         dy="4.5"
         result="offsetBlur"
         id="feOffset4613" />
      <feBlend
         in="SourceGraphic"
         in2="offsetBlur"
         mode="normal"
         id="feBlend4615" />
    </filter>
  </defs>
  <sodipodi:namedview
     id="base"
     pagecolor="#ffffff"
     bordercolor="#666666"
     borderopacity="1.0"
     inkscape:pageopacity="0.0"
     inkscape:pageshadow="2"
     inkscape:zoom="2.8284271"
     inkscape:cx="104.94268"
     inkscape:cy="89.208713"
     inkscape:document-units="px"
     inkscape:current-layer="layer1"
     showgrid="false"
     units="px"
     inkscape:window-width="1188"
     inkscape:window-height="1029"
     inkscape:window-x="491"
     inkscape:window-y="21"
     inkscape:window-maximized="0"
     inkscape:snap-bbox="true"
     inkscape:bbox-paths="true"
     inkscape:bbox-nodes="true"
     inkscape:snap-intersection-paths="true"
     inkscape:object-nodes="true"
     inkscape:snap-bbox-edge-midpoints="false"
     inkscape:snap-midpoints="true"
     showguides="false"
     inkscape:guide-bbox="true"
     inkscape:snap-page="true"
     inkscape:snap-global="true">
    <sodipodi:guide
       position="100,180.75"
       orientation="1,0"
       id="guide8149" />
  </sodipodi:namedview>
  <metadata
     id="metadata8332">
    <rdf:RDF>
      <cc:Work
         rdf:about="">
        <dc:format>image/svg+xml</dc:format>
        <dc:type
           rdf:resource="http://purl.org/dc/dcmitype/StillImage" />
        <dc:title />
        <cc:license
           rdf:resource="http://creativecommons.org/licenses/by-sa/4.0/" />
      </cc:Work>
    </rdf:RDF>
  </metadata>
  <g
     inkscape:label="Layer 1"
     inkscape:groupmode="layer"
     id="layer1"
     transform="translate(0,0)">
    <path
       style="fill:#ffffff;fill-opacity:1;fill-rule:evenodd;stroke:#000000;stroke-width:6.66666651;stroke-linecap:butt;stroke-linejoin:round;stroke-miterlimit:4;stroke-dasharray:none;stroke-opacity:1;filter:url(#fShadow)"
       d="m 66.12791,92.31436 4.600643,-2.028399 c 2.17403,-1.065365 4.092816,-2.14203 6.097586,-3.092728 0.971079,-0.460503 3.067929,-1.670486 3.067929,-1.670486 C 103.5177,73.401458 96.21929,82.817609 96.21929,82.817609 L 54,120.05001 l -10e-7,11.49999 10,9.5 -21.111111,9.5 0,37.50001 c 4.75926,0 9.518519,0 14.277779,0 l 7.13889,-6.66667 c 26.029469,0 47.987123,0 71.388893,0 l 7.13889,6.66667 c 4.75926,0 9.51852,0 14.27778,0 l 0,-37.50001 -21.11111,-9.5 10,-9.5 -1e-5,-15.49999 c 0,0 3.125,-32.55001 -38.75,-87.67501 C 99.9375,11.125 96.0625,6.6874998 96.0625,6.6874998 c 0,0 -1.841053,-2.0896479 -3.125,0.4375 C 91.649769,9.6595959 90.781845,17.769962 89.932289,24.23424 89.741096,25.689029 88.890007,28.187816 88.890007,28.187816 68.414264,44.064425 49.908008,74.330614 49.908008,74.330614 38.969862,96.009133 62.409723,93.953688 66.12791,92.31436 Z"
       id="path17756"
       inkscape:connector-curvature="0"
       transform="matrix(0.9,0,0,0.9,10.150002,18.754991)"
       sodipodi:nodetypes="scsccccccccccccccccccssccs" />
    <path
       style="fill:none;fill-rule:evenodd;stroke:#000000;stroke-width:6;stroke-linecap:butt;stroke-linejoin:miter;stroke-miterlimit:4;stroke-dasharray:none;stroke-opacity:1"
       d="m 67.750001,145.69999 64.800009,0"
       id="path13140"
       inkscape:connector-curvature="0"
       sodipodi:nodetypes="cc" />
  </g>
</svg>
